<svg aria-hidden="true" style="position:absolute;width:0;height:0;overflow:hidden" xmlns="http://www.w3.org/2000/svg">
  <defs>
    <symbol id="icon-arrow-home" viewBox="0 0 25 32">
      <path d="M10.667 30.359a1.641 1.641 0 0 0 3.282 0h-3.282zM13.468.481a1.641 1.641 0 0 0-2.321 0L.704 10.924a1.641 1.641 0 1 0 2.321 2.321l9.283-9.283 9.283 9.283a1.641 1.641 0 1 0 2.321-2.321L13.469.481zm.481 29.878V1.641h-3.282v28.718h3.282z"/>
    </symbol>
    <symbol id="icon-arrow-next" viewBox="0 0 42 32">
      <path d="M2 14a2 2 0 1 0 0 4v-4zm39.414 3.414a2 2 0 0 0 0-2.828L28.686 1.858a2 2 0 1 0-2.828 2.828L37.172 16 25.858 27.314a2 2 0 1 0 2.828 2.828l12.728-12.728zM2 18h38v-4H2v4z"/>
    </symbol>
    <symbol id="icon-arrows-faq" viewBox="0 0 17 32">
      <path d="M.406 30.093a1.388 1.388 0 0 1 0-1.961L13.279 15.25.406 2.367A1.386 1.386 0 0 1 2.365.407L16.218 14.27a1.387 1.387 0 0 1 0 1.96L2.365 30.093a1.383 1.383 0 0 1-1.959 0z"/>
    </symbol>
    <symbol id="icon-footer-logo" viewBox="0 0 44 32">
      <path fill="#fff" style="fill:var(--color1, #fff)" d="M44.07 21.422c.117-.004.104.087.078.115-.209.209-.526.633-.597.706-.022.021-.048.037-.076.047s-.059.013-.089.01h-5.451a.394.394 0 0 1-.302-.088.39.39 0 0 1-.139-.282v-4.219c.001-.037.015-.073.04-.101s.059-.045.097-.049h2.303c.021-.003.042-.002.062.004s.039.017.053.032a.13.13 0 0 1 .038.115v3.666a.042.042 0 0 0 .012.031l.014.01c.005.003.011.003.017.003h3.94zm-16.799-3.864c.037 0 .073.014.1.039s.043.061.044.098v4.484a.118.118 0 0 1-.116.106H24.68c-.068 0-.129-.033-.129-.152v-2.51c0-.008-.002-.017-.007-.024s-.011-.013-.019-.016c-.008-.003-.016-.004-.025-.003s-.016.005-.022.011l-1.831 1.852c-.008.008-.018.012-.029.012s-.021-.004-.029-.012l-1.9-1.852a.044.044 0 0 0-.046-.007c-.007.003-.014.009-.018.015s-.007.015-.007.023v2.538c0 .072-.037.128-.105.128h-2.641c-.016 0-.033-.003-.048-.009a.112.112 0 0 1-.064-.07.113.113 0 0 1-.005-.048v-4.49c.003-.031.018-.061.042-.081s.054-.032.086-.032h2.244a.426.426 0 0 1 .308.12l2.135 2.067a.044.044 0 0 0 .058 0l2.137-2.019a.577.577 0 0 1 .348-.169h2.159zm8.451.309a2.726 2.726 0 0 0-1.295-.311H30.6c-.317-.014-.634.037-.93.151s-.566.286-.794.508a2.323 2.323 0 0 0-.7 1.71c-.012.382.063.763.22 1.111.183.402.489.736.873.954.377.21.802.318 1.234.311h3.884a2.32 2.32 0 0 0 1.778-.724 2.383 2.383 0 0 0 .649-1.641 2.485 2.485 0 0 0-.222-1.124 2.022 2.022 0 0 0-.871-.945zm-1.406 2.251v.067a1.341 1.341 0 0 1-.751 1.145.8.8 0 0 1-.351.091h-1.441c-.555 0-1.101-.615-1.099-1.235v-.474a1.341 1.341 0 0 1 .751-1.144.779.779 0 0 1 .35-.091h1.441c.555 0 1.1.613 1.1 1.235v.407zm-17.423-2.543c.111 0 .144.091.144.185v.508a.45.45 0 0 1-.131.254L14.17 21.33c-.006.006-.01.014-.012.023s-.001.018.003.026c.003.008.009.015.016.02s.016.007.025.007h2.706a.116.116 0 0 1 .096.032c.012.012.022.028.027.044s.007.034.005.052v.635a.092.092 0 0 1-.026.074c-.009.01-.02.018-.033.023s-.026.008-.039.008H9.94v-.663a.535.535 0 0 1 .155-.332l2.728-2.778c.003-.006.005-.013.006-.019s-.001-.014-.004-.02-.007-.012-.012-.016-.011-.008-.018-.009h-2.693a.146.146 0 0 1-.148-.091.14.14 0 0 1-.011-.061v-.569a.144.144 0 0 1 .146-.14h6.803zm-11.074.096a.27.27 0 0 0-.225-.098h-.575a.288.288 0 0 0-.213.087L.285 22.107a.126.126 0 0 0-.042.113c0 .037.031.063.102.063h.721l.555-.556h4.482l.216.228.185.185a.554.554 0 0 0 .357.139H9.31v-.706a.553.553 0 0 0-.154-.387L5.819 17.67zm-3.197 3.064 1.295-1.28 1.23 1.282-2.525-.002zM19.18 27.903c0 .217-.166.345-.49.345h-.623v-1.267h.588c.302 0 .462.128.462.33.002.057-.012.113-.041.162s-.07.089-.12.116a.312.312 0 0 1 .224.315zm-.881-.741v.348h.329c.161 0 .253-.057.253-.174s-.092-.174-.253-.174h-.329zm.648.713c0-.126-.096-.185-.27-.185h-.37v.37h.37c.174.002.27-.054.27-.181v-.004zM20.569 28.247l-.255-.37h-.331v.37h-.233V26.98h.516c.329 0 .533.17.533.45a.406.406 0 0 1-.266.4l.289.417h-.252zm-.315-1.069h-.272v.506h.272c.203 0 .311-.095.311-.254s-.107-.252-.311-.252zM21.375 26.98h.233v1.267h-.233V26.98zM22.509 27.178h-.416v-.198h1.064v.198h-.414v1.069h-.233v-1.069zM23.645 26.98h.231v1.267h-.231V26.98zM24.429 28.112l.081-.185c.119.09.265.139.414.139.194 0 .277-.071.277-.165 0-.272-.74-.094-.74-.565 0-.204.161-.37.505-.37a.78.78 0 0 1 .416.113l-.072.185a.683.683 0 0 0-.346-.098c-.194 0-.272.076-.272.17 0 .271.74.094.74.556 0 .204-.163.37-.505.37a.803.803 0 0 1-.499-.15zM27.1 26.98v1.267h-.233v-.543h-.647v.543h-.233V26.98h.233v.522h.647v-.522h.233zM13.223 29.638c0 .278-.205.45-.535.45h-.283v.37h-.233v-1.271h.516c.329 0 .535.169.535.45zm-.235 0c0-.159-.105-.252-.311-.252h-.272v.504h.272c.205 0 .311-.091.311-.252zM14.674 30.257v.198h-.942v-1.267h.925v.197h-.692v.33h.605v.185h-.605v.35l.708.007zM15.487 29.387h-.416v-.198h1.064v.198h-.414v1.069h-.233v-1.069zM17.406 30.455l-.255-.37h-.331v.37h-.233v-1.267h.516c.329 0 .533.169.533.45a.407.407 0 0 1-.267.4l.289.417h-.252zm-.315-1.068h-.272v.506h.272c.203 0 .311-.095.311-.254s-.107-.252-.311-.252zM18.085 29.822a.675.675 0 1 1 .674.651.628.628 0 0 1-.477-.179.648.648 0 0 1-.197-.471zm1.109 0a.445.445 0 0 0-.757-.309.44.44 0 0 0 .07.68.45.45 0 0 0 .246.074.427.427 0 0 0 .32-.126.441.441 0 0 0 .126-.319h-.006zM19.883 29.822a.676.676 0 0 1 1.167-.44l-.152.143a.441.441 0 0 0-.334-.149.438.438 0 0 0-.374.204.45.45 0 0 0 .105.598.441.441 0 0 0 .422.063.448.448 0 0 0 .182-.125l.152.145a.679.679 0 0 1-.729.168.68.68 0 0 1-.438-.606zM22.655 29.188v1.267h-.233v-.545h-.649v.545h-.231v-1.267h.231v.522h.649v-.522h.233zM24.207 30.257v.198h-.94v-1.267h.925v.197h-.683v.33h.597v.185h-.605v.35l.705.007zM25.894 30.455v-.841l-.413.695h-.104l-.412-.684v.83h-.222v-1.267h.185l.498.839.488-.839h.185v1.267h-.205zM26.727 29.188h.233v1.267h-.233v-1.267zM27.489 29.822a.641.641 0 0 1 .672-.652.643.643 0 0 1 .495.211l-.15.143a.443.443 0 0 0-.335-.149.438.438 0 0 0-.374.204.445.445 0 0 0 .309.683.453.453 0 0 0 .401-.147l.15.144a.67.67 0 0 1-.729.168.679.679 0 0 1-.438-.606zM29.997 30.17h-.627l-.124.295h-.241l.564-1.267h.229l.566 1.267h-.244l-.124-.295zm-.078-.185-.237-.556-.233.556h.47zM30.809 29.188h.233v1.067h.649v.2h-.888l.006-1.267zM32.098 30.32l.081-.185c.119.09.264.139.413.139.196 0 .277-.07.277-.165 0-.274-.74-.094-.74-.565 0-.204.161-.37.503-.37a.787.787 0 0 1 .418.111l-.074.185a.685.685 0 0 0-.344-.1c-.185 0-.274.076-.274.172 0 .27.74.094.74.556 0 .204-.163.37-.507.37a.806.806 0 0 1-.494-.148zM26.05 31.685h-6.77V32h6.77v-.315zM13.462 6.535v.17h-.801v-1.1h.779v.17h-.581v.287h.52v.169h-.52v.304h.603zM13.693 6.59l.07-.159c.101.078.224.12.351.12.166 0 .237-.061.237-.143 0-.237-.634-.082-.634-.491 0-.185.137-.33.429-.33a.66.66 0 0 1 .357.098l-.063.159a.576.576 0 0 0-.294-.087c-.166 0-.233.067-.233.15 0 .233.634.082.634.485 0 .185-.141.328-.433.328a.68.68 0 0 1-.422-.132zM15.075 5.777h-.355v-.172h.906v.172h-.353v.926h-.198v-.926zM15.869 5.605h.47a.565.565 0 0 1 .442.13.558.558 0 0 1-.207.953.565.565 0 0 1-.235.017h-.47v-1.1zm.456.926a.378.378 0 0 0 0-.756h-.259v.756h.259zM17.121 6.587a.126.126 0 0 1 .08-.114.125.125 0 0 1 .136.031c.017.018.029.041.033.065a.127.127 0 0 1-.056.128.124.124 0 0 1-.07.02.13.13 0 0 1-.09-.038c-.012-.012-.021-.026-.026-.042s-.009-.032-.008-.049zM28.482 5.618v1.1h-.203v-.926h-.233v-.17l.437-.004zM29.816 6.15c0 .37-.22.585-.538.585a.562.562 0 0 1-.289-.07l.074-.156a.376.376 0 0 0 .209.054c.207 0 .338-.128.338-.37a.394.394 0 0 1-.294.115.34.34 0 0 1-.258-.091.353.353 0 0 1-.113-.249c.002-.051.014-.1.035-.146s.052-.087.09-.12.082-.059.13-.075.098-.022.149-.017c.29-.009.466.185.466.539zm-.237-.202c0-.104-.081-.185-.228-.185a.18.18 0 0 0-.151.042c-.021.018-.037.04-.048.065s-.017.052-.016.079c0 .115.087.185.22.185a.196.196 0 0 0 .201-.107.212.212 0 0 0 .022-.078zM30.987 6.388c0 .185-.14.346-.436.346a.687.687 0 0 1-.413-.128l.089-.159a.506.506 0 0 0 .322.109c.146 0 .231-.065.231-.167s-.072-.163-.239-.163h-.1v-.137l.25-.298h-.499v-.17h.749v.137l-.267.313a.317.317 0 0 1 .313.318zM32.2 5.618v.137l-.427.963h-.218l.413-.926h-.431v.185h-.185v-.359h.849z"/>
      <path fill="#201a62" style="fill:var(--color2, #201a62)" d="M21.262 3.553V.413h-3.161l3.161 3.14zm2.66-3.14v3.149L27.085.413h-3.163zm-5.821 2.56v1.821h1.87l-1.87-1.821zm8.984 1.821V2.973l-1.868 1.821h1.868zm0 4.53v-1.86H25.2l1.885 1.86zm-8.984-1.859v1.871l1.885-1.871h-1.885zm3.161 4.949V8.772L18.928 11.1l2.334 1.313zm4.995-1.313-2.334-2.328v3.642l2.334-1.313z"/>
      <path fill="#ce181e" style="fill:var(--color3, #ce181e)" d="m27.08.413-3.157 3.14v1.241l3.157-3.16V.413zm-5.823 3.149L18.096.413v1.221l3.161 3.16V3.562zm2.665 3.903 3.157 3.164V9.332l-1.885-1.871-1.273.004zm-5.826 1.87v1.297l3.161-3.164h-1.276l-1.885 1.867zm5.286-3.999V0h-1.589v5.336h-3.7v1.591h3.7v6.063l.795.461.794-.461V6.927h3.7V5.336h-3.7z"/>
      <path fill="#fff" style="fill:var(--color1, #fff)" d="m27.08 1.634-3.157 3.16V.413h-.542v4.923h3.7v-.543h-1.863l1.865-1.819-.002-1.341zm-5.287 11.08V6.927h-3.7v.537h3.156l-3.156 3.149.834.487 2.327-2.328v3.642l.538.3zm5.283-5.249v-.537h-3.7v5.788l.546-.306V8.772l2.327 2.319.831-.469-3.157-3.158h3.154zM21.257.413v4.381l-3.156-3.149v1.334l1.87 1.815h-1.87v.539h3.7V.413h-.544z"/>
    </symbol>
    <symbol id="icon-approved" viewBox="0 0 32 32">
      <path d="M16 0C7.175 0 0 7.175 0 16s7.175 16 16 16 16-7.175 16-16S24.813 0 16 0zm6.933 12.897-7.994 9.229a1.842 1.842 0 0 1-1.327.634h-.069c-.485 0-.957-.196-1.304-.542l-4.303-4.303a1.83 1.83 0 0 1 0-2.607 1.83 1.83 0 0 1 2.607 0l2.907 2.907 6.702-7.729a1.846 1.846 0 0 1 2.607-.185c.75.658.831 1.823.173 2.596z"/>
    </symbol>
    <symbol id="icon-burger" viewBox="0 0 50 32">
      <path d="M0 0h50v4H0V0zm0 14h50v4H0v-4zm50 14H0v4h50v-4z"/>
    </symbol>
    <symbol id="icon-bus" viewBox="0 0 49 32">
      <path d="m46.507 11.83-1.599-5.763a3.808 3.808 0 0 0-3.658-2.781h-.41l-.545-1.94A1.851 1.851 0 0 0 38.519 0H28.164c-.823 0-1.554.554-1.776 1.346l-.545 1.94h-5.308a.7.7 0 0 0 0 1.398h20.716c1.074 0 2.024.722 2.311 1.757l.097.351H1.399v-.874c0-.68.554-1.234 1.234-1.234h15.106a.7.7 0 0 0 0-1.398H2.633A2.635 2.635 0 0 0 .001 5.918v20.221c0 .731.595 1.325 1.325 1.325h4.448c.345 2.557 2.55 4.535 5.213 4.535s4.869-1.979 5.213-4.535h13.97c.345 2.557 2.55 4.535 5.213 4.535s4.869-1.979 5.213-4.535h5.284a1.843 1.843 0 0 0 1.841-1.841v-4.874c0-3.014-.409-6.015-1.215-8.92zM27.733 1.724a.449.449 0 0 1 .43-.326h10.356c.199 0 .376.134.43.326l.439 1.562H27.295l.439-1.562zM39.28 23.252a5.28 5.28 0 0 0-2.127-1.415v-4.436c.123.056 9.171 5.62 9.171 5.62v.216h-6.895a.731.731 0 0 0-.149.016zm-7.779-.016H20.533a.7.7 0 0 0 0 1.398h10.045a5.16 5.16 0 0 0-.41 1.433H16.199a5.17 5.17 0 0 0-.41-1.433h1.947a.7.7 0 0 0 0-1.398h-2.712a.674.674 0 0 0-.143.015 5.26 5.26 0 0 0-3.896-1.72 5.263 5.263 0 0 0-3.882 1.705H1.396v-6.145h34.356v4.455a5.263 5.263 0 0 0-4.254 1.691zm7.514-6.361-.77-.474a4.768 4.768 0 0 0-1.092-.495v-4.797h.041c1.004 0 1.821.817 1.821 1.821v3.945zm-3.26-1.182h-5.283V8.19h5.284v7.503zm-6.682 0h-5.975V8.19h5.975v7.503zm-7.373 0h-5.975V8.19H21.7v7.503zm-7.374 0H8.351V8.19h5.975v7.503zm-7.373 0H1.398V8.19h5.555v7.503zm39.37 5.056v.629l-2.433-1.499a8.854 8.854 0 0 1 1.951-4.653c.32 1.822.482 3.67.482 5.524zm-1.163-8.545c.123.443.235.889.339 1.336-1.497 1.437-2.548 3.45-2.91 5.537l-2.175-1.34V12.93a3.223 3.223 0 0 0-3.219-3.22h-.041V8.189h6.893l1.114 4.014zM1.398 24.634h4.785a5.16 5.16 0 0 0-.41 1.433H1.398v-1.433zm9.589 5.968c-2.13 0-3.864-1.721-3.864-3.836s1.733-3.836 3.864-3.836c2.13 0 3.864 1.721 3.864 3.836s-1.733 3.836-3.864 3.836zm24.396 0c-2.13 0-3.864-1.721-3.864-3.836s1.733-3.836 3.864-3.836c2.13 0 3.864 1.721 3.864 3.836s-1.733 3.836-3.864 3.836zm10.94-4.978a.444.444 0 0 1-.443.443h-5.284a5.16 5.16 0 0 0-.41-1.433h6.137v.99z"/>
      <path d="M35.383 24.475c-1.268 0-2.3 1.027-2.3 2.29s1.032 2.29 2.3 2.29c1.268 0 2.3-1.027 2.3-2.29s-1.032-2.29-2.3-2.29zm0 3.183c-.497 0-.902-.4-.902-.892s.404-.892.902-.892c.497 0 .902.4.902.892s-.404.892-.902.892zM10.987 24.475c-1.268 0-2.3 1.027-2.3 2.29s1.032 2.29 2.3 2.29c1.268 0 2.3-1.027 2.3-2.29s-1.032-2.29-2.3-2.29zm0 3.183c-.497 0-.902-.4-.902-.892s.405-.892.902-.892.902.4.902.892-.405.892-.902.892z"/>
    </symbol>
    <symbol id="icon-call" viewBox="0 0 32 32">
      <path d="M31.999 23.958v4.817a3.216 3.216 0 0 1-3.508 3.212 31.872 31.872 0 0 1-13.885-4.93 31.353 31.353 0 0 1-9.654-9.635A31.739 31.739 0 0 1 .013 3.5 3.214 3.214 0 0 1 3.215 0h4.827a3.216 3.216 0 0 1 3.218 2.762 20.635 20.635 0 0 0 1.126 4.512 3.207 3.207 0 0 1-.724 3.388l-2.043 2.039a25.719 25.719 0 0 0 9.654 9.635l2.043-2.039a3.222 3.222 0 0 1 3.395-.723 20.65 20.65 0 0 0 4.521 1.124 3.213 3.213 0 0 1 2.767 3.26z"/>
    </symbol>
    <symbol id="icon-cancel-off" viewBox="0 0 32 32">
      <path d="M16.342 14.01 2.332 0 .001 2.331l14.01 14.01L.684 29.669 3.015 32l13.328-13.328 12.796 12.796 2.331-2.331-12.796-12.796L32.153 2.862 29.822.531 16.343 14.01z"/>
    </symbol>
    <symbol id="icon-combaine" viewBox="0 0 54 32">
      <path d="M53.505 28.729c-.041.071-.085.14-.12.214-.287.594-.76.906-1.417.908-3.011.004-6.023.004-9.033 0-.696-.001-1.292-.262-1.784-.754-.806-.807-1.612-1.614-2.42-2.419-.117-.117-.241-.228-.377-.353-.951 3.235-2.983 5.039-5.773 5.157a6.091 6.091 0 0 1-2.827-.538 6.162 6.162 0 0 1-2.241-1.734c-.623-.765-1.02-1.639-1.252-2.606h-9.093c-.252 1.84-1.117 3.296-2.762 4.218-1.159.65-2.4.826-3.699.542-2.567-.56-4.362-2.973-4.145-5.607.124-1.514.79-2.769 1.975-3.726 1.184-.955 2.559-1.289 4.086-1.138l.929-2.422c-.191-.109-.351-.202-.511-.29-2.261-1.248-4.519-2.505-6.789-3.738-.374-.203-.541-.427-.536-.87.023-1.874.007-3.747.011-5.621.004-1.585 1.041-2.628 2.62-2.63 4.269-.004 8.539-.003 12.81-.003h.712c-.259-.538-.676-.754-1.189-.804-.286-.029-.578-.011-.867-.011L5.625 4.503h-.409c-.164.477-.333.951-.49 1.43-.383 1.172-.248 1.014-1.393 1.024-.494.004-.986.005-1.48 0-.499-.005-.615-.11-.618-.59a689.479 689.479 0 0 1 0-4.548c.003-.478.119-.583.625-.585 1.855-.004 3.708-.001 5.563-.001 4.628 0 9.255.001 13.881-.001 1.163-.001 2.166.373 2.969 1.232.641.686.979 1.502 1.047 2.436.008.117.012.236.019.387h.975c.451-.904.922-1.809 1.356-2.73.176-.375.405-.533.826-.515.713.031 1.428.007 2.143.01.877.003 1.21.328 1.222 1.19v.444h.595c2.654-.001 5.308-.004 7.962-.001.925.001 1.607.512 1.802 1.352.049.211.064.443.033.657-.456 3.218-.918 6.434-1.386 9.651-.082.564-.142.605-.727.607-.9.003-1.8 0-2.724 0l-2.174 4.033c1.509.898 2.499 2.183 2.995 3.933.221-.442.412-.8.584-1.168.345-.735 1.078-1.058 1.81-.883.99.236 1.991.428 2.986.638.078-.254.109-.512.232-.714.129-.211.349-.369.529-.549.577-.578 1.161-1.152 1.729-1.736a.855.855 0 0 1 .672-.286c.936.015 1.871.014 2.807 0a.86.86 0 0 1 .679.273c.715.73 1.438 1.451 2.165 2.168a.805.805 0 0 1 .258.634c-.011.92-.018 1.84.003 2.759.007.335-.082.591-.336.807-.179.151-.331.333-.517.522.603.533 1.39.829 1.663 1.634.004.24.004.478.004.717zM6.565 13.677c1.019.557 2.046 1.119 3.071 1.683 4.183 2.305 8.366 4.611 12.55 6.913.161.089.337.202.509.209.626.024 1.252.009 1.852.009.996-3.237 3.171-4.845 6.476-4.941V9.439H6.566l-.001 4.237zm-.022-5.116h24.462c.111-1.054.061-5.317-.068-5.675h-2.505c-.435.871-.892 1.724-1.289 2.605-.218.484-.498.665-1.046.662-4.812-.025-9.623-.014-14.437-.014-1.105 0-2.211-.004-3.316.001-1.131.005-1.793.68-1.802 1.822v.598zm25.319 7.415v.428c0 .443.003.886-.001 1.329-.004.581-.094.666-.693.672-.205.001-.408 0-.612.004a5.104 5.104 0 0 0-1.839.375c-1.739.716-2.849 1.983-3.309 3.812-.179.713-.175.714-.925.714-.562 0-1.124-.012-1.684.005a1.55 1.55 0 0 1-.822-.214c-2.395-1.325-4.794-2.643-7.192-3.962-.157-.086-.318-.168-.509-.268l-.836 2.205c2.194.837 3.416 2.4 3.723 4.652h8.969c-.027-2.219.767-4.03 2.548-5.326 1.779-1.293 3.741-1.495 5.822-.776l1.961-3.653c-1.545.003-3.035.003-4.602.003zm6.62 9.301c1.061 1.062 2.088 2.08 3.103 3.11.445.452.96.654 1.597.651 2.856-.012 5.713-.005 8.569-.005.119 0 .24.007.356-.012a.657.657 0 0 0 .547-.474c.081-.251 0-.47-.177-.654-.071-.072-.157-.131-.239-.189-1.589-1.138-3.178-2.279-4.774-3.409a1.715 1.715 0 0 0-.599-.256c-.893-.204-1.792-.39-2.688-.579-1.247-.263-2.492-.527-3.74-.778-.443-.089-.641.004-.839.384-.377.721-.735 1.453-1.117 2.212zm-.908.113a5.313 5.313 0 0 0-5.297-5.345c-2.911-.008-5.301 2.369-5.312 5.277a5.312 5.312 0 0 0 5.296 5.345c2.906.011 5.305-2.373 5.314-5.277zm-25.732 5.28c2.46.003 4.49-2.017 4.501-4.477.011-2.489-2.006-4.508-4.509-4.514-2.428-.007-4.464 2.018-4.471 4.447-.008 2.506 1.997 4.541 4.479 4.544zM5.337 3.685H6c4.798 0 9.595.004 14.393-.004 1.083-.001 1.856.45 2.306 1.442.027.061.068.116.116.196h1.655c.019-.104.035-.151.035-.2.015-1.694-1.349-3.065-3.092-3.068-5.24-.008-10.48-.001-15.72 0-.113 0-.226.018-.357.027v1.607zm35.966 2.454c.395-.852.023-1.675-1.125-1.652-2.583.055-5.168.016-7.751.016h-.524v8.149h1.593v-.526c0-1.225.034-2.452-.01-3.676-.046-1.315.974-2.361 2.335-2.322 1.664.046 3.332.011 4.997.011h.484zm5.398 13.912c-.372.378-.727.743-1.087 1.105-.359.361-.72.718-1.091 1.088l.023.452c.345.074.657.166.975.204 1.362.165 2.586.638 3.62 1.567.213.192.465.341.701.508l1.278.908.738-.751v-2.824l-2.23-2.258h-2.927zM37.569 7.023c-.075-.033-.105-.056-.135-.056-.56-.005-1.122-.012-1.683-.01-.902.005-1.432.527-1.436 1.423-.007 1.311-.003 2.622-.001 3.933 0 .113.022.226.033.327h3.223V7.022zm.848 5.632h2.016c.271-1.896.541-3.773.813-5.664h-2.829v5.664zm-6.536 2.441h8.206c.075-.536.145-1.037.217-1.566h-8.425l.001 1.566zM3.765 6.121c.581-1.308.936-2.628.672-4.042H2.082v4.042h1.683z"/>
      <path d="M28.594 25.282c.02-1.979 1.697-3.621 3.681-3.608a3.695 3.695 0 0 1 3.67 3.728c-.011 2.002-1.701 3.658-3.708 3.633-2.038-.023-3.663-1.7-3.643-3.753zm6.532.038a2.867 2.867 0 0 0-2.89-2.825c-1.562.015-2.838 1.323-2.823 2.896a2.868 2.868 0 0 0 2.89 2.825c1.562-.015 2.84-1.328 2.823-2.896zM8.991 26.153a2.868 2.868 0 0 1 2.875-2.843 2.87 2.87 0 0 1 2.841 2.88 2.866 2.866 0 0 1-2.875 2.844c-1.567-.008-2.848-1.307-2.841-2.881zm4.901.003a2.048 2.048 0 0 0-2.057-2.025 2.055 2.055 0 0 0-2.023 2.062 2.047 2.047 0 0 0 2.058 2.024 2.05 2.05 0 0 0 2.021-2.061zM26.799 12.441c0-.423-.008-.847.002-1.27.009-.391.227-.62.564-.615.254.003.441.134.512.379.033.114.044.238.045.357.004.774.003 1.548.001 2.322 0 .096-.007.194-.028.287-.067.287-.262.443-.539.44-.27-.003-.473-.167-.532-.452-.024-.117-.021-.24-.022-.36-.003-.363-.001-.726-.001-1.089H26.8zM28.731 12.432c0-.424-.006-.847.002-1.27.008-.387.197-.596.525-.604.343-.009.566.216.57.604.008.859.008 1.717.004 2.576-.002.317-.173.541-.426.598-.237.053-.477-.036-.588-.255a.898.898 0 0 1-.083-.381c-.011-.424-.004-.847-.004-1.27zM25.992 12.459c0 .411.004.822-.001 1.233-.005.425-.207.657-.556.65-.332-.007-.536-.24-.538-.635a220.86 220.86 0 0 1 .001-2.574c.002-.277.16-.492.381-.557.243-.072.512.016.628.236a.89.89 0 0 1 .085.379c.01.423.004.846.004 1.269h-.004z"/>
      <path stroke-linejoin="round" stroke-linecap="round" stroke-width="1.231" d="M4.368 31.385h36.096"/>
    </symbol>
    <symbol id="icon-copyright" viewBox="0 0 32 32">
      <path d="M16 3c7.2 0 13 5.8 13 13s-5.8 13-13 13S3 23.2 3 16 8.8 3 16 3zm0-3C7.2 0 0 7.2 0 16s7.2 16 16 16 16-7.2 16-16S24.8 0 16 0z"/>
      <path d="M19.8 20.6c-1 .8-2.4 1.4-3.8 1.4-3.4 0-6-2.6-6-6s2.6-6 6-6c1.6 0 3.2.6 4.2 1.8l2.2-2.2C20.8 8 18.4 7 16 7c-5 0-9 4-9 9s4 9 9 9c2.2 0 4-.8 5.6-2l-1.8-2.4z"/>
    </symbol>
    <symbol id="icon-email" viewBox="0 0 41 32">
      <path d="M18.367 15.791c1.063.709 2.929.709 3.993 0L40.486 3.707A4.395 4.395 0 0 0 36.338.749H4.387A4.396 4.396 0 0 0 .239 3.707l18.127 12.084z"/>
      <path d="M23.684 17.776c-.931.62-2.126.931-3.321.931s-2.389-.31-3.32-.931L-.001 6.414v20.449a4.393 4.393 0 0 0 4.388 4.388h31.951a4.392 4.392 0 0 0 4.388-4.388V6.414L23.683 17.776z"/>
    </symbol>
    <symbol id="icon-file" viewBox="0 0 32 32">
      <path stroke-width=".333" d="m22.964 27.804-1.937-1.875a.77.77 0 1 1 1.072-1.108l1.397 1.352 3.276-3.223a.772.772 0 0 1 1.081 1.099l-3.813 3.75a.772.772 0 0 1-1.077.004zm1.307-10.867v.167h.167c4.079 0 7.396 3.291 7.396 7.333 0 4.062-3.348 7.396-7.396 7.396H2.813a2.649 2.649 0 0 1-2.646-2.646V8.5c0-.201.082-.4.224-.543l7.5-7.562a.78.78 0 0 1 .547-.228h13.125c1.469 0 2.708 1.188 2.708 2.646v14.125zM7.667 3.214v-.405l-4.879 4.92h4.879V3.214zM1.875 9.271h-.167v19.917c0 .609.495 1.104 1.104 1.104h17.111L19.59 30a7.426 7.426 0 0 1-2.316-3.729l-.032-.125H4.688a.77.77 0 1 1 0-1.542h12.354v-.167c0-.633.081-1.247.234-1.833l.054-.209H4.688a.77.77 0 1 1 0-1.542h13.298l.048-.083a7.42 7.42 0 0 1 4.569-3.439l.126-.032V2.811c0-.601-.552-1.104-1.167-1.104H9.208v6.792a.77.77 0 0 1-.771.771H1.875zm10.312-3.417h7.5a.77.77 0 1 1 0 1.542h-7.5a.77.77 0 1 1 0-1.542zm0 3.75h7.5a.77.77 0 1 1 0 1.542h-7.5a.77.77 0 1 1 0-1.542zm-8.27 4.521a.77.77 0 0 1 .771-.771h15a.77.77 0 1 1 0 1.542h-15a.77.77 0 0 1-.771-.771zm.771 2.979h11.601a.77.77 0 1 1 0 1.542H4.688a.77.77 0 1 1 0-1.542zm13.895 7.333c0 3.175 2.679 5.854 5.854 5.854s5.854-2.679 5.854-5.854c0-3.195-2.628-5.792-5.854-5.792s-5.854 2.596-5.854 5.792z"/>
    </symbol>
    <symbol id="icon-lab" viewBox="0 0 35 32">
      <path d="M32.76 27h-2.063v-1.156c0-1.21-.447-2.366-1.243-3.26a8.069 8.069 0 0 0 2.681-6.021 8.027 8.027 0 0 0-.627-3.123 3.117 3.117 0 0 0-.98-3.012l.189-.327a1.88 1.88 0 0 0-.199-2.156l.763-1.321a1.24 1.24 0 0 0 1.082-.625l.937-1.624a.625.625 0 0 0-.229-.854L27.117.083a.624.624 0 0 0-.853.229l-.937 1.624c-.231.4-.214.875.001 1.249l-.763 1.322a1.873 1.873 0 0 0-.828.034c-.485.13-.889.44-1.139.872l-3.438 5.954a1.86 1.86 0 0 0-.186 1.422c.074.275.205.524.384.734l-.679 1.175c-.167.289-.211.625-.124.948s.293.593.582.759l3.789 2.187a1.252 1.252 0 0 0 1.708-.458l.679-1.176a1.815 1.815 0 0 0 .828-.033c.485-.13.889-.44 1.139-.872l.188-.326c.273.091.563.146.864.158a4.34 4.34 0 0 1-1.234 3.764 4.347 4.347 0 0 1-3.088 1.287h-2.188a.625.625 0 0 0 0 1.25h2.188a.625.625 0 0 1 0 1.25h-10a.625.625 0 0 1 0-1.25h2.187a.625.625 0 0 0 0-1.25H14.01c-1.034 0-1.875.841-1.875 1.875s.841 1.875 1.875 1.875h1.58v2.313h-2.83a1.877 1.877 0 0 0-1.875 1.875v2.5c0 .345.28.625.625.625h22.5c.345 0 .625-.28.625-.625v-2.5a1.877 1.877 0 0 0-1.875-1.875zm-3.313-1.156V27h-1.25v-1.156c0-.748-.343-1.418-.881-1.86a8.057 8.057 0 0 0 1.147-.631 3.65 3.65 0 0 1 .984 2.491zm-3.656-1.157c.638 0 1.156.519 1.156 1.156v1.156h-4.482v-2.313h3.326zm2.666-10.047c-1.034 0-1.875-.841-1.875-1.875s.841-1.875 1.875-1.875 1.875.841 1.875 1.875-.841 1.875-1.875 1.875zm-2.756-9.601.625-1.083 3.789 2.188-.625 1.083-3.789-2.188zm1.334-3.56 4.871 2.813-.625 1.082-4.871-2.813.625-1.083zm-7.272 13.844.625-1.083 3.789 2.187-.625 1.083-3.789-2.188zm6.434.106a.625.625 0 0 1-.854.229l-4.872-2.813a.625.625 0 0 1-.229-.854l3.438-5.954a.625.625 0 0 1 .854-.229l4.871 2.813a.627.627 0 0 1 .229.854l-.188.326a3.129 3.129 0 0 0-4.114 2.964c0 .929.408 1.764 1.054 2.337l-.189.327zm-.53 6.508a5.617 5.617 0 0 0 2.315-1.403 5.583 5.583 0 0 0 1.584-4.849 3.136 3.136 0 0 0 1.127-.74 6.82 6.82 0 0 1 .193 1.617 6.827 6.827 0 0 1-2.019 4.856 6.858 6.858 0 0 1-3.019 1.77 1.868 1.868 0 0 0-.179-1.251zm-8.827 2.75h4.375V27H16.84v-2.313zm16.545 6.063h-21.25v-1.875c0-.345.28-.625.625-.625h20c.345 0 .625.28.625.625v1.875z"/>
      <path d="M19.635 21.563a.625.625 0 1 0-1.25 0 .625.625 0 0 0 1.25 0zM2.509 32H8.98v-1.012H2.509c-.507 0-.961-.242-1.243-.663a1.47 1.47 0 0 1-.239-1.05h2.239a.507.507 0 0 0 0-1.012h-1.87l.581-1.417h2.688a.507.507 0 0 0 0-1.012H2.392l.581-1.417h2.834a.507.507 0 0 0 0-1.012H3.388l.581-1.417H6.95a.507.507 0 0 0 0-1.012H4.384l.581-1.417h8.543l.102.249h1.094l-1.897-4.623a6.089 6.089 0 0 1-.458-2.323V9.333c0-.38.148-.737.417-1.006.328-.328.508-.764.508-1.227v-.5a.507.507 0 0 0-.506-.506H5.704a.506.506 0 0 0-.506.506v.5c0 .463.18.899.508 1.227.269.269.417.626.417 1.006v3.529c0 .801-.154 1.582-.458 2.323L.187 28.537c-.318.775-.229 1.654.238 2.35s1.246 1.112 2.084 1.112zm4.093-16.429a7.1 7.1 0 0 0 .534-2.707V9.335a2.42 2.42 0 0 0-.713-1.722.722.722 0 0 1-.212-.506h6.052a.724.724 0 0 1-.212.506 2.418 2.418 0 0 0-.713 1.722v3.529a7.1 7.1 0 0 0 .534 2.707l1.222 2.978H5.381l1.222-2.977z"/>
    </symbol>
    <symbol id="icon-sertufikat" viewBox="0 0 37 32">
      <path d="M2.032 0A2.034 2.034 0 0 0 0 2.036v21.527c0 1.125.91 2.036 2.032 2.036h22.349a.581.581 0 0 0 0-1.164H2.032a.872.872 0 0 1-.871-.873V2.035c0-.482.39-.873.871-.873h31.637c.481 0 .871.391.871.873v14.836a.582.582 0 1 0 1.161 0V2.035c0-1.125-.91-2.036-2.032-2.036H2.032z"/>
      <path d="M32.531 5.725a.624.624 0 0 0-.44-.18 1.914 1.914 0 0 1-1.914-1.832.623.623 0 0 0-.624-.596H6.055a.623.623 0 0 0-.624.596 1.93 1.93 0 0 1-1.826 1.83.624.624 0 0 0-.595.625v13.129c0 .335.261.61.595.625a1.93 1.93 0 0 1 1.826 1.83.623.623 0 0 0 .624.596h14.959a.507.507 0 0 0 0-1.016H6.403a2.913 2.913 0 0 0-2.379-2.385V6.517a2.91 2.91 0 0 0 2.379-2.385h22.802a2.926 2.926 0 0 0 2.5 2.403v8.625a.508.508 0 1 0 1.014 0V6.17a.618.618 0 0 0-.187-.446z"/>
      <path d="M12.987 6.982h14.682a.507.507 0 0 1 0 1.016H12.987a.507.507 0 0 1 0-1.016zM27.705 9.758H8.021a.507.507 0 0 0 0 1.016h19.684a.507.507 0 0 0 0-1.016zM27.601 12.481H8.053a.507.507 0 0 0 0 1.016h19.548a.507.507 0 0 0 0-1.016zM14.075 18.78l-.588.001c-.377 0-.585-.099-.662-.493-.07-.36-.597-.314-.694 0-.043.139-.259.537-.447.505-.082-.014-.127-.12-.16-.201l-.02-.047a2.982 2.982 0 0 1-.169-.478c-.123-.448-.182-.909-.241-1.369a17.75 17.75 0 0 0-.104-.734c-.069-.406-.696-.291-.706.094-.032 1.227-.236 2.437-.679 3.587-.165.427.531.611.694.188a9.83 9.83 0 0 0 .412-1.358c.056.168.124.333.206.493.21.409.638.651 1.097.469.164-.065.313-.178.44-.317.327.371.806.37 1.262.369h.057l2.136-.004c.463-.001.464-.71 0-.709l-1.831.004zM29.031 23.313l-1.354-1.337a.351.351 0 0 1 .193-.596l1.878-.284.85-1.704a.348.348 0 0 1 .624 0l.85 1.704 1.878.284a.35.35 0 0 1 .193.596l-1.353 1.337.311 1.879a.35.35 0 0 1-.505.368l-1.686-.878-1.686.878a.35.35 0 0 1-.505-.368l.311-1.879zm1.262-1.74a.346.346 0 0 1-.26.189l-1.367.206.985.973a.35.35 0 0 1 .099.307l-.227 1.368 1.227-.639a.35.35 0 0 1 .322 0l1.227.639-.227-1.368a.353.353 0 0 1 .099-.307l.985-.973-1.367-.206a.35.35 0 0 1-.26-.189l-.619-1.24-.619 1.24zM31.202 16.945a.363.363 0 1 1-.726.002.363.363 0 0 1 .726-.002z"/>
      <path d="M25.252 22.382a5.666 5.666 0 0 1 4.256-5.499.299.299 0 0 1 .147.579 5.071 5.071 0 0 0-3.808 4.921 5.07 5.07 0 0 0 5.064 5.078 5.07 5.07 0 0 0 5.064-5.078 5.072 5.072 0 0 0-3.808-4.921.299.299 0 0 1 .147-.579 5.667 5.667 0 0 1 4.256 5.499 5.663 5.663 0 0 1-1.863 4.208l1.795 3.172a.298.298 0 0 1-.319.44l-2.038-.424-.716 2.024a.3.3 0 0 1-.255.198l-.026.001a.3.3 0 0 1-.259-.151l-1.978-3.486-1.978 3.486a.298.298 0 0 1-.539-.048l-.716-2.024-2.038.424a.298.298 0 0 1-.319-.44l1.795-3.172a5.665 5.665 0 0 1-1.863-4.208zm2.901 6.95.585 1.654 1.674-2.951c-1.02-.091-2-.459-2.828-1.063l-1.42 2.51 1.648-.343a.297.297 0 0 1 .341.193zm5.517 0a.298.298 0 0 1 .341-.193l1.648.343-1.42-2.51a5.66 5.66 0 0 1-2.829 1.063l1.674 2.951.585-1.654z"/>
    </symbol>
    <symbol id="icon-station" viewBox="0 0 31 32">
      <path d="M8.296 12.637c0 .487-.398.881-.889.881s-.889-.394-.889-.881.398-.881.889-.881.889.394.889.881zM18.074 4.709H7.407a.885.885 0 0 0-.889.881v3.524c0 .487.398.881.889.881h10.667a.885.885 0 0 0 .889-.881V5.59a.885.885 0 0 0-.889-.881zm-.889 3.524H8.296V6.471h8.889v1.762zM13.472 12.137c.037.053.919 1.322 1.815 2.853 1.277 2.182 1.898 3.718 1.898 4.696 0 2.429-1.994 4.405-4.444 4.405s-4.444-1.976-4.444-4.405c0-.978.621-2.514 1.898-4.696.896-1.531 1.778-2.799 1.815-2.853a.89.89 0 0 1 1.462 0zm-3.398 7.548c0 1.457 1.196 2.643 2.667 2.643s2.667-1.186 2.667-2.643c0-.962-1.387-3.473-2.667-5.455-1.279 1.981-2.667 4.492-2.667 5.455z"/>
      <path d="M27.852 8.233h.889c.491 0 .889.394.889.881V14.4a.885.885 0 0 1-.889.881h-.889v2.643c0 3.101-2.322 5.675-5.333 6.103v1.884h.889c.491 0 .889.394.889.881v3.582a.885.885 0 0 1-.889.881H2.075a.885.885 0 0 1-.889-.881v-3.582c0-.487.398-.881.889-.881h.889V3.828c0-1.457 1.196-2.643 2.667-2.643h14.222c1.47 0 2.667 1.186 2.667 2.643v18.411c2.026-.409 3.556-2.189 3.556-4.316V15.28h-.889a.885.885 0 0 1-.889-.881V9.113c0-.487.398-.881.889-.881h.889V6.319a5.08 5.08 0 0 0-1.517-3.631c-.347-.344-.347-.902 0-1.246s.91-.344 1.257 0a6.822 6.822 0 0 1 2.038 4.877v1.913zM5.63 2.947a.886.886 0 0 0-.889.881v22.083h16V3.828a.886.886 0 0 0-.889-.881H5.63zM2.963 29.493h19.556v-1.821H2.963v1.821zm23.111-15.974h1.778V9.995h-1.778v3.524z"/>
      <path stroke-width=".593" d="M8.296 12.637c0 .487-.398.881-.889.881s-.889-.394-.889-.881.398-.881.889-.881.889.394.889.881zM18.074 4.709H7.407a.885.885 0 0 0-.889.881v3.524c0 .487.398.881.889.881h10.667a.885.885 0 0 0 .889-.881V5.59a.885.885 0 0 0-.889-.881zm-.889 3.524H8.296V6.471h8.889v1.762zM13.472 12.137c.037.053.919 1.322 1.815 2.853 1.277 2.182 1.898 3.718 1.898 4.696 0 2.429-1.994 4.405-4.444 4.405s-4.444-1.976-4.444-4.405c0-.978.621-2.514 1.898-4.696.896-1.531 1.778-2.799 1.815-2.853a.89.89 0 0 1 1.462 0zm-3.398 7.548c0 1.457 1.196 2.643 2.667 2.643s2.667-1.186 2.667-2.643c0-.962-1.387-3.473-2.667-5.455-1.279 1.981-2.667 4.492-2.667 5.455z"/>
      <path stroke-width=".593" d="M27.852 8.233h.889c.491 0 .889.394.889.881V14.4a.885.885 0 0 1-.889.881h-.889v2.643c0 3.101-2.322 5.675-5.333 6.103v1.884h.889c.491 0 .889.394.889.881v3.582a.885.885 0 0 1-.889.881H2.075a.885.885 0 0 1-.889-.881v-3.582c0-.487.398-.881.889-.881h.889V3.828c0-1.457 1.196-2.643 2.667-2.643h14.222c1.47 0 2.667 1.186 2.667 2.643v18.411c2.026-.409 3.556-2.189 3.556-4.316V15.28h-.889a.885.885 0 0 1-.889-.881V9.113c0-.487.398-.881.889-.881h.889V6.319a5.08 5.08 0 0 0-1.517-3.631c-.347-.344-.347-.902 0-1.246s.91-.344 1.257 0a6.822 6.822 0 0 1 2.038 4.877v1.913zM5.63 2.947a.886.886 0 0 0-.889.881v22.083h16V3.828a.886.886 0 0 0-.889-.881H5.63zM2.963 29.493h19.556v-1.821H2.963v1.821zm23.111-15.974h1.778V9.995h-1.778v3.524z"/>
    </symbol>
    <symbol id="icon-traktor" viewBox="0 0 38 32">
      <path d="M37.629 30.519c-.229.264-.526.296-.858.296-5.824-.008-11.647-.007-17.471-.008H2.078c-.13 0-.262.006-.391-.006a.518.518 0 0 1-.498-.539c.005-.289.212-.501.517-.522.094-.007.19-.002.284-.002 1.387 0 2.775 0 4.183-.051-.166-.082-.332-.164-.42-.206-.327.068-.576.157-.826.16-.267.004-.484-.162-.674-.355-.482-.491-.972-.974-1.458-1.461-.531-.532-.579-.814-.256-1.487l-.486-1.19c-.081-.026-.172-.047-.258-.084-.384-.166-.602-.456-.606-.88-.007-.819-.007-1.637 0-2.455.003-.423.225-.711.604-.883.086-.039.178-.064.261-.093l.493-1.191c-.478-.678-.105-1.191.461-1.681-.203-.189-.392-.351-.564-.53-.46-.478-.444-1.016.046-1.46a9.69 9.69 0 0 1 1.947-1.363l.307-.164v-10.1c-.108-.007-.202-.006-.292-.018A1.223 1.223 0 0 1 3.385 3.17a4.54 4.54 0 0 1-.011-.816c.052-.688.551-1.154 1.244-1.158 1.435-.012 2.871-.01 4.305-.01l10.141.003c.143 0 .285-.002.427.005.547.029 1.034.432 1.12.97.048.3.052.615.027.92-.054.643-.462 1.056-1.101 1.163-.046.008-.091.012-.179.025l2.313 7.562 5.623.616v-.405c-.001-1.151-.006-2.301-.001-3.452.001-.2.005-.409.066-.595.15-.466.481-.747.969-.835.08-.014.159-.035.269-.061v-.391c.001-.925.009-1.851-.001-2.776-.004-.315.103-.546.361-.724.244-.167.473-.358.715-.528.299-.208.598-.173.786.078.191.254.141.545-.139.78-.1.084-.208.158-.312.237-.094.071-.187.144-.29.223v3.12c.064.019.107.034.152.045.594.135.966.514 1.029 1.114.038.364.026.735.009 1.101a.52.52 0 0 1-.382.504c-.217.069-.417.024-.544-.151a1.006 1.006 0 0 1-.157-.456c-.026-.223-.005-.45-.009-.675-.002-.105-.014-.208-.024-.342h-1.346c-.094.242-.131 3.589-.046 4.306l1.413.161c0-.195-.006-.368.002-.54.007-.141.011-.286.05-.42a.526.526 0 0 1 .509-.373.517.517 0 0 1 .496.386c.038.146.041.303.047.456.008.198.002.397.002.611.742.081 1.446.157 2.15.236.424.048.85.082 1.27.15.735.12 1.283.809 1.286 1.613.006 1.625.003 3.25.003 4.876v.598c.67.625 1.209 1.33 1.533 2.173.172.45.267.928.398 1.394.015.053.045.103.067.154v1.495c-.021.041-.054.08-.06.124-.238 1.61-1.019 2.901-2.287 3.908-.048.038-.082.092-.149.169.627 0 1.207.014 1.786-.006.319-.011.551.086.711.359v.429zm-12.027-5.737c.105-2.234 1.047-3.995 2.965-5.137 1.925-1.147 3.93-1.116 5.949-.126v-1.68h-9.667c-.593 0-1.186.01-1.779-.004a2.353 2.353 0 0 1-1.632-.683c-.516-.501-.725-1.127-.731-1.829-.006-.711.002-1.424.001-2.135 0-.102-.015-.203-.026-.324h-.414l-4.482.003c-.546 0-1.092.005-1.636-.006-.307-.007-.51-.226-.513-.521s.197-.513.499-.538c.094-.008.189-.003.284-.003h6.109l-2.302-7.523h-7.77v7.519h.328c.284.001.57-.006.854.006.325.012.554.241.555.531.001.293-.23.516-.552.532-.083.004-.166.001-.249.001H5.867c0 .304-.002.564.001.823.001.057.018.113.029.185 3.465-.97 6.651-.475 9.396 1.901 2.738 2.369 3.728 5.437 3.261 9.008h7.048zm-15.47 4.946c.163-.529.31-.674.797-.85.3-.108.607-.211.884-.364.419-.23.822-.277 1.172-.037l1.571-1.564c-.225-.374-.184-.773.035-1.179.124-.228.237-.468.307-.716.134-.476.355-.855.887-.96v-2.202c-.507-.107-.747-.457-.877-.923a3.198 3.198 0 0 0-.271-.655c-.24-.441-.347-.88-.078-1.278l-1.565-1.575c-.309.194-.658.211-1.022.054a55.11 55.11 0 0 0-1.178-.49.998.998 0 0 1-.592-.577c-.029-.074-.064-.146-.091-.206h-2.18c-.1.532-.479.756-.957.885a2.658 2.658 0 0 0-.621.259c-.44.25-.879.349-1.287.079l-1.564 1.566c.253.362.204.746-.007 1.146a4.67 4.67 0 0 0-.341.817c-.141.463-.379.811-.902.897V24.05c.531.104.769.456.909.919.074.247.175.493.299.719.231.425.32.842.01 1.267.07.077.122.141.18.198l1.349 1.351c.61-.262.69-.252 1.295.026.3.138.613.249.922.367.314.12.557.308.665.642.021.065.054.125.083.19.725.002 1.436.002 2.168.002zm16.579-4.945c-.047 2.503 1.964 4.906 4.869 4.947 2.716.039 4.971-2.173 4.974-4.885.004-3.004-2.469-4.954-4.895-4.965-2.66-.012-4.962 2.164-4.948 4.903zm-14.869 4.933h16.327c-1.331-.986-2.128-2.246-2.45-3.814H15.72l-.196.422c.293.577.276.96-.098 1.348a60.843 60.843 0 0 1-1.686 1.684c-.358.344-.728.38-1.176.164a8.708 8.708 0 0 1-.163-.083c-.168.085-.333.166-.559.279zm22.697-12.965c0-.688.011-1.315-.005-1.942-.008-.311-.183-.485-.481-.518-1.094-.125-2.188-.242-3.282-.364l-2.293-.257-2.153-.238c-.988-.109-1.976-.222-2.965-.329-.502-.054-1.005-.103-1.498-.153-.021.043-.04.064-.04.084-.003.853-.015 1.707.004 2.56.004.189.09.394.19.56.262.436.683.597 1.177.595.759-.003 1.518-.009 2.276-.009l8.641.009c.126.002.254.002.428.002zM5.893 4.268v7.504h3.456V4.268H5.893zm6.522 12.192c.592-.286.951-.268 1.334.105.569.554 1.125 1.122 1.687 1.683.258.257.33.572.263.917-.029.147-.111.284-.165.416l.486 1.178c.687.233.882.507.883 1.235.001.546-.003 1.091.001 1.637.003.388.022.777-.192 1.144h.683c.739-3.224-.674-7.357-4.495-9.339-3.434-1.782-7.505-.848-9.544 1.188l.428.553c.217-.245.381-.449.563-.634.243-.248.553-.316.885-.249.146.029.283.107.431.166l1.189-.496c.154-.568.459-.857.991-.869a48.543 48.543 0 0 1 2.383.004c.469.011.806.247.953.714.017.055.039.11.057.162.399.162.79.324 1.182.486zm7.127-14.176c-.178-.01-.317-.025-.455-.025h-5.872c-2.787 0-5.575-.001-8.362.001-.124 0-.247.026-.38.04v.846c.168.013.318.034.467.034a8934.122 8934.122 0 0 0 14.198-.005c.133 0 .266-.033.403-.052l.001-.84z"/>
      <path d="M21.772 22.037c0-.415-.008-.829.002-1.244.009-.383.223-.607.553-.602.248.003.432.131.501.371.032.111.043.233.044.35.004.758.003 1.516.001 2.274 0 .094-.007.19-.028.281-.066.281-.257.434-.528.431-.264-.003-.463-.164-.521-.442-.024-.114-.021-.235-.022-.353-.003-.356-.001-.71-.001-1.066h-.001zM23.664 22.028c0-.415-.006-.829.002-1.243.008-.378.193-.584.514-.592.336-.009.554.211.558.592.008.841.008 1.681.004 2.522-.002.31-.169.53-.417.586-.232.052-.467-.035-.575-.249a.891.891 0 0 1-.082-.373c-.01-.415-.004-.829-.004-1.243zM20.982 22.054c0 .402.004.805-.001 1.207-.005.417-.202.644-.544.636-.325-.007-.525-.235-.527-.622-.004-.84-.005-1.679.001-2.52.002-.271.157-.481.373-.545.238-.07.501.015.615.231.057.108.08.246.083.371.01.414.004.828.004 1.242h-.004zM13.437 22.963A4.368 4.368 0 0 1 9 27.365c-2.419-.01-4.394-1.931-4.373-4.434.023-2.643 2.162-4.386 4.425-4.384 2.442.002 4.428 2.037 4.384 4.416zm-4.424 3.31c1.799.031 3.304-1.391 3.349-3.25a3.31 3.31 0 0 0-3.247-3.392c-1.935-.049-3.385 1.543-3.402 3.273-.019 1.886 1.518 3.393 3.3 3.369zM28.148 24.885c-.01-1.78 1.228-3.27 2.928-3.524 1.714-.256 3.034.638 3.667 1.874.032.063.068.126.087.194a.544.544 0 0 1-.258.639.54.54 0 0 1-.693-.17c-.067-.096-.113-.208-.173-.31-.508-.861-1.549-1.344-2.485-1.156-1.072.215-1.842 1.012-1.985 2.055a2.42 2.42 0 0 0 1.547 2.569 2.4 2.4 0 0 0 2.85-.916c.059-.088.104-.186.164-.275.177-.26.455-.339.712-.208.265.135.371.436.229.73a3.27 3.27 0 0 1-1.075 1.258c-2.1 1.492-5.034.282-5.477-2.258-.032-.185-.029-.377-.038-.503z"/>
      <path d="M31.643 26.672a1.89 1.89 0 0 1-1.894-1.86c-.007-1.008.872-1.888 1.881-1.884a1.89 1.89 0 0 1 1.866 1.852 1.87 1.87 0 0 1-1.853 1.891zm-.789-1.851c.006.437.372.793.798.775a.814.814 0 0 0 .766-.786.78.78 0 0 0-.794-.779c-.449.001-.776.337-.77.79zM9.066 25.635a2.679 2.679 0 0 1-2.712-2.662c-.012-1.466 1.182-2.691 2.637-2.704 1.523-.012 2.723 1.185 2.727 2.722.004 1.443-1.193 2.636-2.652 2.644zm-.043-1.086a1.602 1.602 0 0 0 1.622-1.58c.011-.867-.718-1.61-1.594-1.623-.871-.013-1.605.715-1.609 1.595-.004.902.685 1.603 1.58 1.608z"/>
    </symbol>
    <symbol id="icon-truck" viewBox="0 0 62 32">
      <path d="M33.349 11.179a.868.868 0 0 0 1.232 0l1.544-1.544a.873.873 0 0 0 0-1.233l-1.544-1.544a.873.873 0 0 0-1.233 1.233l.927.927-.927.927a.87.87 0 0 0 0 1.233zM29.825 11.179a.872.872 0 0 0 1.233 0l1.544-1.544a.873.873 0 0 0 0-1.233l-1.544-1.544a.873.873 0 0 0-1.233 1.233l.927.927-.927.927a.873.873 0 0 0 0 1.233z"/>
      <path d="M57.934 20.966h-.002c.019-.116.03-.233.03-.353v-9.044c0-.533-.203-1.039-.572-1.424l-5.904-6.161a2.08 2.08 0 0 0-1.496-.638h-6.82a1.877 1.877 0 0 0-1.874 1.874v4.914h-1.602V3.077a1.895 1.895 0 0 0-1.893-1.893H12.794a.871.871 0 1 0 0 1.744H37.8a.15.15 0 0 1 .149.149v11.777H4.085V3.077a.15.15 0 0 1 .149-.149h5.072a.871.871 0 1 0 0-1.744H4.234a1.895 1.895 0 0 0-1.893 1.893v18.25a2.427 2.427 0 0 0-1.159 2.067 2.432 2.432 0 0 0 2.429 2.429h.281c.424 2.82 2.876 4.991 5.827 4.991s5.402-2.17 5.827-4.991h3.486c.424 2.82 2.875 4.991 5.827 4.991s5.402-2.17 5.827-4.991h3.492a.871.871 0 1 0 0-1.744h-3.492a5.792 5.792 0 0 0-.384-1.371h13.682a5.805 5.805 0 0 0-.384 1.371h-5.935a.871.871 0 1 0 0 1.744H43.6c.425 2.82 2.876 4.991 5.827 4.991s5.402-2.17 5.827-4.991h2.678c1.34 0 2.429-1.09 2.429-2.429s-1.09-2.429-2.429-2.429zm-1.737-9.515h-8.822a.21.21 0 0 1-.21-.21V8.12a.21.21 0 0 1 .21-.21h5.46l3.298 3.442a.3.3 0 0 1 .064.099zm-14.899.427v9.088h-1.602v-9.088h1.602zM5.315 16.599v4.367H4.088v-4.367h1.227zm-2.386 6.796c0-.378.308-.686.686-.686h.665a5.805 5.805 0 0 0-.384 1.371h-.281a.687.687 0 0 1-.686-.686zm6.793 5.677c-2.288 0-4.149-1.848-4.149-4.119s1.861-4.119 4.149-4.119c2.288 0 4.149 1.848 4.149 4.119s-1.861 4.119-4.149 4.119zm9.313-4.991h-3.486a5.792 5.792 0 0 0-.384-1.371h4.254a5.805 5.805 0 0 0-.384 1.371zm5.827 4.991c-2.288 0-4.149-1.848-4.149-4.119s1.861-4.119 4.149-4.119c2.288 0 4.149 1.848 4.149 4.119s-1.861 4.119-4.149 4.119zm0-9.982a5.89 5.89 0 0 0-4.315 1.876h-6.51a5.89 5.89 0 0 0-4.315-1.876c-.958 0-1.863.23-2.664.636v-3.127h30.894v4.367h-8.775a5.89 5.89 0 0 0-4.315-1.876zm18.179 1.876V5.22a.13.13 0 0 1 .13-.13h6.82a.33.33 0 0 1 .237.101l.935.976h-3.789a1.955 1.955 0 0 0-1.953 1.953v3.121c0 1.077.876 1.953 1.953 1.953h8.845v7.419a.45.45 0 0 1-.123.309.782.782 0 0 0-.037.044h-2.315c-1.077-1.153-2.612-1.876-4.315-1.876s-3.238.723-4.315 1.876h-2.073zm6.389 8.106c-2.288 0-4.149-1.848-4.149-4.119s1.861-4.119 4.149-4.119 4.149 1.848 4.149 4.119-1.861 4.119-4.149 4.119zm8.504-4.991h-2.678a5.792 5.792 0 0 0-.384-1.371h3.062a.687.687 0 0 1 0 1.372z"/>
      <path d="M49.43 22.33c-1.452 0-2.633 1.177-2.633 2.623s1.181 2.623 2.633 2.623 2.633-1.177 2.633-2.623a2.631 2.631 0 0 0-2.633-2.623zm0 3.502c-.491 0-.89-.394-.89-.879s.399-.879.89-.879.89.394.89.879-.399.879-.89.879zM46.35 16.416h.953a.872.872 0 0 0 0-1.744h-.953a.872.872 0 0 0 0 1.744zM24.862 22.33c-1.452 0-2.633 1.177-2.633 2.623s1.181 2.623 2.633 2.623 2.633-1.177 2.633-2.623-1.181-2.623-2.633-2.623zm0 3.502c-.491 0-.89-.394-.89-.879s.399-.879.89-.879.89.394.89.879-.399.879-.89.879zM9.722 22.33c-1.452 0-2.633 1.177-2.633 2.623s1.181 2.623 2.633 2.623 2.633-1.177 2.633-2.623a2.631 2.631 0 0 0-2.633-2.623zm0 3.502c-.491 0-.89-.394-.89-.879s.399-.879.89-.879.89.394.89.879-.399.879-.89.879z"/>
      <path stroke-linecap="round" stroke-width=".593" d="M33.349 11.179a.868.868 0 0 0 1.232 0l1.544-1.544a.873.873 0 0 0 0-1.233l-1.544-1.544a.873.873 0 0 0-1.233 1.233l.927.927-.927.927a.87.87 0 0 0 0 1.233zM29.825 11.179a.872.872 0 0 0 1.233 0l1.544-1.544a.873.873 0 0 0 0-1.233l-1.544-1.544a.873.873 0 0 0-1.233 1.233l.927.927-.927.927a.873.873 0 0 0 0 1.233z"/>
      <path stroke-linecap="round" stroke-width=".593" d="M57.934 20.966h-.002c.019-.116.03-.233.03-.353v-9.044c0-.533-.203-1.039-.572-1.424l-5.904-6.161a2.08 2.08 0 0 0-1.496-.638h-6.82a1.877 1.877 0 0 0-1.874 1.874v4.914h-1.602V3.077a1.895 1.895 0 0 0-1.893-1.893H12.794a.871.871 0 1 0 0 1.744H37.8a.15.15 0 0 1 .149.149v11.777H4.085V3.077a.15.15 0 0 1 .149-.149h5.072a.871.871 0 1 0 0-1.744H4.234a1.895 1.895 0 0 0-1.893 1.893v18.25a2.427 2.427 0 0 0-1.159 2.067 2.432 2.432 0 0 0 2.429 2.429h.281c.424 2.82 2.876 4.991 5.827 4.991s5.402-2.17 5.827-4.991h3.486c.424 2.82 2.875 4.991 5.827 4.991s5.402-2.17 5.827-4.991h3.492a.871.871 0 1 0 0-1.744h-3.492a5.792 5.792 0 0 0-.384-1.371h13.682a5.805 5.805 0 0 0-.384 1.371h-5.935a.871.871 0 1 0 0 1.744H43.6c.425 2.82 2.876 4.991 5.827 4.991s5.402-2.17 5.827-4.991h2.678c1.34 0 2.429-1.09 2.429-2.429s-1.09-2.429-2.429-2.429zm-1.737-9.515h-8.822a.21.21 0 0 1-.21-.21V8.12a.21.21 0 0 1 .21-.21h5.46l3.298 3.442a.3.3 0 0 1 .064.099zm-14.899.427v9.088h-1.602v-9.088h1.602zM5.315 16.599v4.367H4.088v-4.367h1.227zm-2.386 6.796c0-.378.308-.686.686-.686h.665a5.805 5.805 0 0 0-.384 1.371h-.281a.687.687 0 0 1-.686-.686zm6.793 5.677c-2.288 0-4.149-1.848-4.149-4.119s1.861-4.119 4.149-4.119c2.288 0 4.149 1.848 4.149 4.119s-1.861 4.119-4.149 4.119zm9.313-4.991h-3.486a5.792 5.792 0 0 0-.384-1.371h4.254a5.805 5.805 0 0 0-.384 1.371zm5.827 4.991c-2.288 0-4.149-1.848-4.149-4.119s1.861-4.119 4.149-4.119c2.288 0 4.149 1.848 4.149 4.119s-1.861 4.119-4.149 4.119zm0-9.982a5.89 5.89 0 0 0-4.315 1.876h-6.51a5.89 5.89 0 0 0-4.315-1.876c-.958 0-1.863.23-2.664.636v-3.127h30.894v4.367h-8.775a5.89 5.89 0 0 0-4.315-1.876zm18.179 1.876V5.22a.13.13 0 0 1 .13-.13h6.82a.33.33 0 0 1 .237.101l.935.976h-3.789a1.955 1.955 0 0 0-1.953 1.953v3.121c0 1.077.876 1.953 1.953 1.953h8.845v7.419a.45.45 0 0 1-.123.309.782.782 0 0 0-.037.044h-2.315c-1.077-1.153-2.612-1.876-4.315-1.876s-3.238.723-4.315 1.876h-2.073zm6.389 8.106c-2.288 0-4.149-1.848-4.149-4.119s1.861-4.119 4.149-4.119 4.149 1.848 4.149 4.119-1.861 4.119-4.149 4.119zm8.504-4.991h-2.678a5.792 5.792 0 0 0-.384-1.371h3.062a.687.687 0 0 1 0 1.372z"/>
      <path stroke-linecap="round" stroke-width=".593" d="M49.43 22.33c-1.452 0-2.633 1.177-2.633 2.623s1.181 2.623 2.633 2.623 2.633-1.177 2.633-2.623a2.631 2.631 0 0 0-2.633-2.623zm0 3.502c-.491 0-.89-.394-.89-.879s.399-.879.89-.879.89.394.89.879-.399.879-.89.879zM46.35 16.416h.953a.872.872 0 0 0 0-1.744h-.953a.872.872 0 0 0 0 1.744zM24.862 22.33c-1.452 0-2.633 1.177-2.633 2.623s1.181 2.623 2.633 2.623 2.633-1.177 2.633-2.623-1.181-2.623-2.633-2.623zm0 3.502c-.491 0-.89-.394-.89-.879s.399-.879.89-.879.89.394.89.879-.399.879-.89.879zM9.722 22.33c-1.452 0-2.633 1.177-2.633 2.623s1.181 2.623 2.633 2.623 2.633-1.177 2.633-2.623a2.631 2.631 0 0 0-2.633-2.623zm0 3.502c-.491 0-.89-.394-.89-.879s.399-.879.89-.879.89.394.89.879-.399.879-.89.879z"/>
    </symbol>
    <symbol id="icon-main-logo" viewBox="0 0 131 32">
      <path fill="#fff" style="fill:var(--color1, #fff)" d="M35.153 5.916c0 1.176-.93 1.856-2.705 1.856h-3.499V.973h3.304c1.693 0 2.562.708 2.562 1.767a1.632 1.632 0 0 1-.903 1.496 1.687 1.687 0 0 1 1.241 1.681zm-4.662-3.757v1.602h1.556c.763 0 1.177-.272 1.177-.808s-.414-.794-1.177-.794h-1.556zm3.079 3.592c0-.574-.434-.846-1.245-.846h-1.833v1.681h1.826c.824 0 1.252-.251 1.252-.835zM41.262 7.772l-1.303-1.894h-1.44v1.894h-1.567V.973h2.928c1.806 0 2.938.942 2.938 2.468.019.457-.104.909-.351 1.294s-.608.682-1.031.851l1.519 2.186h-1.693zm-1.468-5.5h-1.276V4.64h1.276c.954 0 1.436-.447 1.436-1.182s-.479-1.203-1.436-1.203v.017zM44.655.973h1.57v6.799h-1.563L44.655.973zM49.744 2.255h-2.151V.973h5.883v1.282h-2.165v5.5h-1.567v-5.5zM54.85.973h1.566v6.799H54.85V.973zM58.137 7.102l.53-1.186a3.944 3.944 0 0 0 2.233.708c.927 0 1.303-.309 1.303-.725 0-1.275-3.933-.399-3.933-2.925 0-1.155.927-2.117 2.852-2.117a4.541 4.541 0 0 1 2.346.602l-.486 1.196a3.789 3.789 0 0 0-1.874-.533c-.927 0-1.286.344-1.286.777 0 1.251 3.933.388 3.933 2.884 0 1.134-.937 2.107-2.87 2.107a4.772 4.772 0 0 1-2.75-.787zM71.681.973v6.799h-1.563V4.984H67.04v2.788h-1.56V.973h1.563v2.681h3.078V.973h1.56zM34.815 13.423c0 1.516-1.132 2.458-2.938 2.458h-1.368v1.873h-1.56v-6.796h2.928c1.806 0 2.938.942 2.938 2.465zm-1.588 0c0-.746-.482-1.182-1.44-1.182h-1.272v2.368h1.272c.958 0 1.44-.447 1.44-1.186zM41.713 16.493v1.262h-5.236v-6.796h5.113v1.261h-3.557v1.475h3.14v1.224h-3.14v1.574h3.68zM45.021 12.241h-2.165v-1.282h5.893v1.282h-2.165v5.5h-1.563v-5.5zM54.361 17.462l-1.303-1.894h-1.433v1.894h-1.573v-6.796h2.941c1.809 0 2.938.942 2.938 2.465.019.459-.105.913-.354 1.298s-.612.682-1.038.851l1.519 2.183h-1.696zm-1.467-5.499h-1.269v2.355h1.276c.958 0 1.44-.447 1.44-1.186s-.489-1.183-1.447-1.183v.014zM57.354 14.355c0-2.018 1.567-3.513 3.701-3.513s3.701 1.485 3.701 3.513c0 2.028-1.573 3.517-3.701 3.517s-3.701-1.495-3.701-3.517zm5.814 0c0-.564-.223-1.105-.62-1.505a2.108 2.108 0 0 0-2.994 0 2.133 2.133 0 0 0 0 3.01 2.112 2.112 0 0 0 2.994 0c.397-.399.62-.94.62-1.505zM66.123 14.355c0-2.063 1.566-3.513 3.673-3.513.524-.022 1.047.074 1.528.283s.911.523 1.256.921l-1.006.932a2.181 2.181 0 0 0-1.71-.794 2.074 2.074 0 0 0-2.165 2.172 2.098 2.098 0 0 0 .605 1.568 2.065 2.065 0 0 0 1.56.608 2.167 2.167 0 0 0 1.71-.805l1.006.945a3.478 3.478 0 0 1-2.794 1.213c-2.097-.014-3.663-1.478-3.663-3.53zM80.352 10.959v6.796h-1.567v-2.784h-3.078v2.784H74.14v-6.796h1.567v2.678h3.078v-2.678h1.567zM87.791 16.493v1.262h-5.24v-6.796h5.13v1.261h-3.557v1.475h3.14v1.224h-3.14v1.574h3.667zM95.838 17.754v-4.077l-1.991 3.358h-.705l-1.98-3.272v3.991h-1.468v-6.796h1.293l2.531 4.225 2.493-4.225h1.287l.02 6.796h-1.481zM99.505 10.959h1.566v6.796h-1.566v-6.796zM102.843 14.355c0-2.063 1.563-3.513 3.67-3.513a3.475 3.475 0 0 1 2.784 1.203l-1.006.932a2.176 2.176 0 0 0-1.71-.794 2.078 2.078 0 0 0-2.166 2.171 2.077 2.077 0 0 0 2.166 2.175 2.145 2.145 0 0 0 1.71-.804l1.006.945a3.455 3.455 0 0 1-2.791 1.213c-2.1-.014-3.663-1.478-3.663-3.53zM115.477 16.3h-3.14l-.598 1.454h-1.604l3.013-6.796h1.546l3.014 6.796h-1.642l-.588-1.454zm-.506-1.196-1.074-2.602-1.071 2.602h2.145zM119.034 10.959h1.566v5.5h3.393v1.282h-4.959v-6.782zM125.136 17.084l.53-1.182a3.975 3.975 0 0 0 2.233.708c.926 0 1.303-.309 1.303-.729 0-1.272-3.934-.399-3.934-2.922 0-1.158.927-2.117 2.853-2.117a4.513 4.513 0 0 1 2.346.602l-.482 1.193a3.823 3.823 0 0 0-1.874-.533c-.93 0-1.286.344-1.286.777 0 1.255 3.934.388 3.934 2.884 0 1.138-.938 2.107-2.87 2.107a4.773 4.773 0 0 1-2.753-.787z"/>
      <path fill="#201a62" style="fill:var(--color2, #201a62)" d="M7.497 8.442V.983H.014l7.483 7.459zM13.801.983v7.459L21.285.983h-7.483zM.014 7.064v4.338H4.44L.014 7.064zm21.27 4.338V7.064l-4.426 4.338h4.426zm-.027 10.769v-4.434h-4.446l4.446 4.434zM.014 17.737v4.451l4.463-4.451H.014zm7.483 11.766v-8.655l-5.51 5.531 5.51 3.125zm11.814-3.124-5.51-5.531v8.655l5.51-3.125z"/>
      <path fill="#ce181e" style="fill:var(--color3, #ce181e)" d="m21.257.983-7.47 7.459v2.96l7.47-7.521V.983zM7.483 8.442 0 .983v2.898l7.483 7.521v-2.96zm6.304 9.281 7.47 7.542v-3.076l-4.446-4.451-3.023-.014zM0 22.189v3.076l7.483-7.528h-3.02L0 22.188zm12.518-9.508V0H8.756v12.681H0v3.781h8.756v14.41l1.898 1.097 1.881-1.097v-14.41h8.722v-3.781h-8.739z"/>
      <path fill="#fff" style="fill:var(--color1, #fff)" d="m21.257 3.881-7.47 7.521V.983h-1.269V12.67h8.739v-1.268h-4.398l4.398-4.324V3.881zM8.756 30.218v-13.75H.014v1.268h7.47l-7.47 7.528 1.973 1.121 5.51-5.538v8.655l1.259.715zm12.501-12.481v-1.275h-8.739v13.75l1.283-.729v-8.635l5.503 5.527 1.953-1.11-7.47-7.528h7.47zM7.484.983v10.419L.014 3.895v3.169l4.426 4.338H.014v1.279h8.742V.994L7.484.984zM31.442 23.158c0 .66-.486 1.062-1.289 1.062h-.763v.921h-.441v-3.046h1.201c.807 0 1.293.419 1.293 1.062zm-.441 0c0-.437-.294-.688-.862-.688h-.749v1.375h.759c.557-.003.852-.251.852-.688zM35.17 24.763v.378h-2.244v-3.046h2.182v.378h-1.741v.935h1.549v.371h-1.549v.983h1.803zM38.731 25.141l-.684-.935h-.958v.925h-.441v-3.035h1.204c.804 0 1.289.402 1.289 1.062a.963.963 0 0 1-.685.962l.735 1.031-.462-.01zm0-1.983c0-.437-.298-.688-.862-.688h-.749v1.375h.749c.551 0 .848-.251.848-.688h.014zM41.163 22.474v1.073h1.549v.375h-1.549v1.231h-.441v-3.056h2.182v.378h-1.741zM46.546 24.763v.378h-2.244v-3.046h2.182v.378h-1.741v.935h1.549v.371h-1.549v.983h1.802zM47.76 23.619a1.674 1.674 0 0 1 1.062-1.448 1.655 1.655 0 0 1 1.752.364l-.287.275a1.164 1.164 0 0 0-1.283-.286c-.218.087-.405.237-.536.432a1.185 1.185 0 0 0 0 1.32 1.17 1.17 0 0 0 1.221.487c.228-.051.437-.17.598-.341l.287.275a1.655 1.655 0 0 1-1.753.37 1.655 1.655 0 0 1-1.062-1.45zM52.815 22.474h-1.06v-.378h2.555v.378h-1.06v2.667h-.434v-2.667zM55.64 22.096h.441v2.667h1.672v.378h-2.114v-3.046zM59.905 24.089v1.052h-.434v-1.062l-1.228-1.983h.472l.988 1.605.992-1.605h.438l-1.228 1.994zM64.276 23.619a1.67 1.67 0 0 1 1.059-1.449 1.646 1.646 0 0 1 1.751.366l-.284.275a1.171 1.171 0 0 0-1.283-.286c-.218.087-.405.237-.536.432a1.185 1.185 0 0 0 0 1.32 1.17 1.17 0 0 0 1.221.487c.229-.051.437-.17.598-.341l.284.275a1.65 1.65 0 0 1-2.493-.201 1.669 1.669 0 0 1-.32-.879zM70.597 25.141l-.667-.935h-.958v.925h-.441v-3.035h1.204c.804 0 1.289.402 1.289 1.062a.963.963 0 0 1-.685.962l.735 1.031-.479-.01zm0-1.983c0-.437-.294-.688-.862-.688h-.749v1.375h.749c.554 0 .848-.251.848-.688h.014zM74.831 24.763v.378h-2.244v-3.046h2.182v.378h-1.741v.935h1.553v.371h-1.553v.983h1.802zM78.484 24.382h-1.642l-.342.76h-.455l1.399-3.046h.438l1.406 3.046h-.465l-.339-.76zm-.154-.344-.684-1.492-.64 1.485 1.324.007zM80.909 22.474h-1.057v-.378h2.555v.378h-1.061v2.667h-.438v-2.667zM85.977 24.763v.378h-2.24v-3.046h2.178v.378h-1.727v.935h1.55v.371h-1.55v.983h1.789zM87.472 22.096h1.303c.995 0 1.67.619 1.67 1.523s-.684 1.523-1.67 1.523h-1.303v-3.046zm1.276 2.667c.766 0 1.255-.461 1.255-1.145s-.489-1.145-1.255-1.145h-.834v2.289h.834z"/>
    </symbol>
  </defs>
</svg>
